<?xml version="1.0" standalone="no"?>
<!DOCTYPE svg PUBLIC "-//W3C//DTD SVG 20010904//EN"
 "http://www.w3.org/TR/2001/REC-SVG-20010904/DTD/svg10.dtd">
<svg version="1.0" xmlns="http://www.w3.org/2000/svg"
 width="817.000000pt" height="817.000000pt" viewBox="0 0 817.000000 817.000000"
 preserveAspectRatio="xMidYMid meet">

<g transform="translate(0.000000,817.000000) scale(0.100000,-0.100000)"
fill="#000000" stroke="none">
<path d="M3226 7276 c7 -17 44 -22 44 -6 0 6 -4 10 -9 10 -5 0 -17 3 -25 6
-12 5 -15 2 -10 -10z"/>
<path d="M3235 7189 c3 -39 11 -69 21 -80 22 -24 47 -25 40 -1 -3 9 -8 35 -11
57 -12 78 -15 85 -35 85 -18 0 -19 -5 -15 -61z"/>
<path d="M3206 7135 c4 -8 8 -15 10 -15 2 0 4 7 4 15 0 8 -4 15 -10 15 -5 0
-7 -7 -4 -15z"/>
<path d="M4862 7088 c4 -8 2 -21 -3 -29 -7 -12 -10 -12 -18 -1 -6 10 -11 3
-15 -24 -6 -28 -10 -34 -17 -23 -6 10 -9 4 -9 -21 -2 -65 -9 -113 -20 -124 -5
-5 -10 -21 -10 -34 0 -13 -6 -36 -14 -50 -7 -15 -24 -61 -37 -102 -23 -73 -48
-135 -71 -175 -30 -52 -48 -97 -43 -105 3 -6 1 -10 -5 -10 -6 0 -8 -4 -5 -10
3 -5 2 -10 -4 -10 -5 0 -13 -15 -16 -32 -4 -18 -11 -35 -16 -38 -5 -3 -10 -16
-12 -28 -2 -12 -9 -28 -15 -34 -7 -7 -12 -18 -12 -26 0 -7 -5 -10 -12 -6 -7 4
-8 3 -4 -4 4 -6 -1 -20 -11 -30 -32 -33 -50 -57 -34 -48 9 6 12 5 9 -5 -3 -8
-10 -13 -16 -12 -6 2 -9 -4 -5 -13 3 -8 1 -14 -6 -12 -12 3 -131 -181 -131
-202 0 -19 19 -10 25 13 13 42 49 107 59 107 19 0 154 220 226 368 24 51 48
92 52 92 5 0 5 -8 0 -17 -5 -10 -7 -23 -5 -30 2 -6 -3 -22 -11 -35 -8 -13 -15
-26 -15 -31 -1 -24 -86 -170 -209 -357 l-114 -174 17 -76 c32 -134 53 -193
129 -348 12 -23 29 -45 39 -48 37 -12 10 -74 -33 -74 -14 0 -24 -9 -31 -29 -8
-21 -15 -28 -26 -24 -13 5 -15 1 -9 -23 l7 -29 -18 22 -18 22 -35 -47 c-93
-125 -213 -272 -222 -272 -17 0 -111 104 -200 221 -47 63 -100 127 -117 143
-28 27 -33 28 -56 16 -31 -17 -42 -8 -19 15 17 17 17 18 0 30 -15 11 -16 17
-5 37 6 13 17 26 23 30 8 5 8 10 0 18 -15 15 -6 48 16 60 21 11 52 68 44 81
-3 5 0 17 5 26 10 17 10 17 11 1 0 -10 5 -18 10 -18 9 0 11 9 15 65 2 37 15
75 25 75 6 0 10 11 10 25 0 14 6 25 13 25 9 0 8 3 -2 9 -11 7 -11 9 0 13 9 3
6 14 -13 39 -25 34 -38 61 -44 88 -1 8 -14 25 -28 38 -14 13 -26 32 -26 42 0
10 -10 26 -22 35 -13 9 -17 14 -10 11 18 -9 15 1 -15 48 -15 23 -48 86 -74
139 -27 54 -58 103 -69 110 -11 7 -20 16 -20 21 0 4 5 5 10 2 16 -10 12 9 -19
76 -16 35 -43 102 -61 149 -18 47 -43 113 -56 147 -13 34 -24 64 -24 68 0 3
-8 25 -19 48 -36 81 -71 176 -71 192 0 9 -4 14 -9 10 -5 -3 -11 7 -13 22 -2
16 -8 27 -14 26 -7 -1 -26 2 -43 7 -19 5 -31 5 -31 -1 0 -5 5 -9 10 -9 6 0 10
-7 10 -15 0 -9 -6 -12 -15 -9 -20 8 -19 -1 2 -21 9 -10 12 -20 7 -23 -11 -8
-12 -22 -3 -37 4 -5 7 -39 8 -75 1 -36 4 -78 6 -95 3 -16 7 -42 9 -57 3 -20 0
-28 -11 -28 -11 0 -13 -5 -7 -17 13 -28 8 -274 -9 -448 -18 -171 -57 -349 -83
-375 -14 -13 -17 -13 -30 4 -8 11 -14 25 -14 31 0 6 -11 17 -24 25 -13 8 -52
41 -85 73 -34 31 -65 57 -70 57 -5 0 -14 -7 -21 -15 -18 -21 -32 -19 -25 5 6
19 -3 25 -28 21 -4 -1 -10 6 -13 14 -15 38 -334 134 -449 135 -46 0 -76 11
-68 24 4 6 -1 5 -11 -3 -14 -12 -19 -12 -29 -1 -10 10 -9 12 6 7 9 -4 17 -2
17 3 0 6 -9 10 -20 10 -11 0 -20 -7 -20 -15 0 -12 -4 -14 -17 -7 -10 6 -29 6
-51 0 -19 -5 -44 -11 -55 -14 -31 -6 -36 -14 -38 -71 -2 -29 -7 -53 -11 -53
-5 0 -6 -5 -2 -11 4 -7 1 -10 -7 -7 -13 4 -15 18 -20 116 -3 63 -11 60 -17 -6
-2 -26 -4 -53 -4 -59 -1 -7 -6 -13 -11 -13 -6 0 -8 -3 -4 -6 9 -9 -21 -36 -32
-29 -6 3 -18 -4 -29 -15 l-18 -20 -71 24 c-94 32 -113 43 -113 66 0 11 -3 20
-7 20 -5 0 -25 16 -45 35 -26 25 -42 33 -55 28 -16 -6 -16 -5 -5 9 11 14 6 22
-42 57 -30 23 -58 41 -61 41 -4 0 -30 20 -58 45 -29 25 -56 45 -60 45 -5 0
-39 24 -75 53 -36 28 -74 57 -83 62 -10 6 -107 78 -216 160 -109 83 -223 163
-253 179 -64 33 -124 74 -163 110 -30 28 -61 34 -74 14 -4 -7 -8 -76 -9 -153
-1 -154 -10 -235 -28 -235 -6 0 -2 -7 8 -15 19 -15 19 -16 -7 -43 -21 -21 -29
-45 -38 -103 -11 -66 -9 -91 10 -205 35 -210 143 -483 200 -509 11 -5 21 -16
21 -23 0 -7 8 -25 17 -39 17 -26 17 -26 -7 -21 -22 4 -25 1 -26 -26 0 -17 4
-34 10 -38 8 -5 7 -8 -1 -8 -7 0 -24 11 -38 25 -42 43 -24 3 33 -74 21 -28 22
-31 5 -32 -10 0 -13 -3 -6 -6 10 -3 10 -10 1 -26 -10 -19 -9 -20 4 -9 22 17
31 0 13 -24 -17 -22 -19 -38 -5 -29 6 3 10 3 11 -2 0 -4 2 -17 4 -28 1 -11 6
-61 9 -112 8 -109 26 -174 74 -268 104 -202 152 -215 130 -36 -5 51 -8 95 -5
98 3 3 13 -2 22 -11 13 -13 16 -30 13 -79 -4 -59 6 -117 21 -117 4 0 7 60 8
133 2 137 19 225 61 306 28 53 51 48 84 -19 14 -30 24 -58 22 -62 -3 -5 -2 -8
3 -8 4 0 14 -13 21 -30 16 -35 28 -38 37 -10 4 11 11 18 16 14 6 -3 10 0 8 7
-3 27 1 36 32 68 17 18 37 30 44 27 9 -3 16 6 20 25 6 27 11 30 38 27 17 -2
33 -9 35 -17 3 -9 0 -11 -9 -6 -12 7 -12 5 -1 -6 11 -12 14 -12 22 1 8 12 10
9 10 -12 0 -24 5 -28 38 -33 32 -5 134 -24 222 -40 35 -7 134 -47 141 -58 4
-5 18 -10 32 -10 14 -1 23 -5 21 -9 -2 -3 21 -27 51 -53 30 -26 52 -51 49 -56
-3 -5 2 -6 10 -3 12 5 16 -1 16 -25 0 -27 4 -31 25 -31 17 0 40 -15 68 -43 23
-24 53 -50 67 -59 14 -8 36 -34 49 -57 l23 -42 -41 21 c-32 16 -41 25 -36 39
3 12 0 18 -10 18 -8 0 -15 -4 -15 -9 0 -19 -42 -6 -72 22 -35 34 -48 37 -48
14 0 -12 -5 -13 -22 -8 -13 5 -33 8 -45 9 -13 0 -23 3 -23 6 0 4 -14 9 -30 11
-32 5 -37 -1 -18 -20 14 -14 0 -16 -21 -3 -7 5 -11 13 -7 19 3 5 -8 12 -24 14
-17 3 -30 1 -30 -4 0 -4 -8 -8 -19 -8 -12 0 -56 -44 -117 -117 -55 -65 -112
-129 -127 -142 -22 -18 -25 -26 -15 -32 10 -7 10 -9 -2 -9 -20 0 -40 -33 -34
-57 5 -17 -5 -22 -78 -41 -46 -12 -118 -25 -161 -29 -43 -3 -80 -10 -83 -14
-12 -20 -82 -9 -113 17 -39 32 -86 46 -132 39 -22 -4 -40 -2 -44 4 -10 16 -25
13 -25 -5 0 -32 75 -138 162 -230 103 -108 180 -156 359 -228 139 -55 187 -59
219 -18 43 55 102 112 111 106 5 -3 9 -1 9 4 0 6 7 12 14 15 31 12 4 -19 -39
-46 -25 -15 -50 -38 -55 -51 -5 -13 -14 -27 -20 -31 -6 -4 -15 -17 -20 -29 -8
-21 -12 -22 -62 -16 -55 8 -260 86 -334 127 -23 13 -88 62 -144 109 -88 74
-98 80 -66 41 63 -77 146 -139 256 -194 201 -99 335 -136 357 -99 4 7 65 74
134 147 70 74 139 149 154 167 26 31 30 33 79 27 28 -3 78 -8 111 -11 74 -6
92 -11 130 -37 19 -14 25 -16 17 -5 -11 14 -9 15 15 13 51 -4 87 -26 168 -103
44 -42 94 -89 110 -104 64 -57 92 -96 82 -113 -5 -9 -6 -19 -3 -22 3 -4 6 -1
6 6 0 7 5 9 10 6 15 -9 12 -25 -4 -25 -8 0 -16 -7 -20 -15 -8 -22 -26 -19 -96
16 -35 17 -83 37 -109 45 -25 8 -82 38 -126 68 -60 41 -84 52 -97 45 -9 -5
-28 -9 -42 -9 -32 0 -56 -10 -56 -22 0 -6 7 -8 14 -5 10 4 13 1 10 -8 -3 -8
-18 -17 -34 -20 -30 -7 -84 -60 -75 -75 3 -5 -18 -53 -47 -107 -30 -54 -60
-113 -67 -130 -9 -22 -20 -33 -35 -34 -11 0 -16 -3 -9 -5 8 -4 6 -16 -5 -44
-18 -43 -20 -44 -41 -31 -15 9 10 64 106 239 33 59 32 87 -1 40 -21 -29 -20
-15 1 25 14 28 14 30 0 19 -16 -14 -41 -73 -29 -69 17 5 14 -11 -10 -53 -15
-25 -37 -66 -49 -92 -13 -27 -27 -48 -31 -48 -5 0 2 19 14 43 12 23 28 56 35
72 21 49 -10 4 -49 -71 -18 -35 -37 -64 -42 -64 -4 0 -21 11 -38 25 -42 35
-83 33 -103 -5 -17 -33 -20 -76 -5 -85 6 -3 10 -17 10 -31 0 -17 4 -23 12 -18
7 4 8 3 4 -5 -4 -6 -1 -22 7 -35 15 -22 14 -26 -12 -57 l-28 -33 -39 16 c-21
9 -49 20 -62 23 -13 4 -38 20 -57 36 -18 16 -37 28 -42 27 -4 -2 -45 23 -90
55 -44 31 -84 57 -88 57 -4 0 -18 9 -32 20 -32 25 -43 25 -43 0 0 -11 4 -20 9
-20 5 0 11 -7 14 -14 4 -11 1 -13 -10 -9 -13 5 -15 1 -9 -23 3 -16 9 -40 12
-54 10 -46 44 -114 85 -167 45 -60 42 -65 -10 -26 -21 16 -30 19 -21 9 8 -10
31 -29 52 -42 20 -13 42 -33 48 -44 10 -18 8 -19 -12 -11 -55 22 -88 44 -88
58 0 9 -6 13 -15 9 -10 -3 -15 1 -15 12 0 15 -2 15 -10 2 -8 -12 -10 -8 -11
15 -1 24 -3 25 -6 8 -7 -36 -20 -27 -15 9 4 29 3 31 -10 20 -13 -10 -17 -10
-22 3 -3 9 -10 14 -15 11 -5 -4 -11 -2 -13 2 -1 4 -25 23 -53 42 -59 40 -210
190 -267 266 -22 30 -44 54 -49 54 -12 0 -23 -41 -20 -75 4 -45 61 -226 70
-221 4 3 15 -12 25 -32 13 -29 13 -33 1 -18 -8 11 -15 24 -15 30 0 5 -3 7 -6
3 -8 -8 99 -207 132 -246 l25 -30 -50 -83 c-60 -100 -59 -122 5 -188 l44 -46
-93 -46 -94 -46 9 -54 c14 -90 19 -185 9 -163 -7 17 -9 15 -12 -15 -9 -83 89
-285 199 -410 l40 -45 -3 133 c-2 81 0 130 6 127 5 -4 9 3 9 13 0 11 7 25 15
32 16 13 39 4 29 -12 -6 -9 12 -6 55 10 10 4 11 -1 5 -19 -17 -49 -2 -102 56
-197 23 -37 69 -81 86 -82 6 0 71 -36 143 -79 191 -114 500 -240 501 -203 2
32 62 61 87 41 7 -6 20 -8 29 -5 44 17 -28 110 -106 136 -22 7 -40 16 -40 20
0 3 -7 15 -16 26 -14 17 -15 17 -10 1 6 -20 -5 -18 -69 8 -41 17 -64 94 -76
259 -5 70 -12 132 -15 137 -2 5 0 26 7 46 8 28 20 43 47 56 43 22 128 112 113
121 -5 3 -32 -17 -60 -46 -28 -29 -51 -48 -51 -42 0 13 129 144 142 144 6 0 3
-9 -7 -20 -10 -11 -15 -23 -11 -28 4 -4 19 6 32 21 13 15 24 26 24 23 0 -3 15
5 34 18 37 25 36 24 206 86 282 102 427 150 457 150 22 0 38 8 53 27 l21 27
143 1 142 0 75 -64 c41 -35 119 -114 174 -174 144 -160 160 -178 179 -215 11
-21 33 -40 64 -54 26 -12 53 -28 60 -35 17 -16 36 -17 26 -1 -5 7 -2 10 7 6 8
-3 62 -20 122 -39 75 -23 106 -37 103 -46 -3 -7 -1 -13 4 -13 6 0 10 5 10 10
0 16 40 12 46 -4 8 -20 62 -38 67 -23 2 8 23 6 73 -7 38 -10 81 -20 96 -23 14
-3 35 -13 45 -22 20 -19 67 -35 57 -20 -3 6 10 8 33 5 51 -6 51 -6 28 -17 -16
-7 -13 -8 15 -5 35 4 198 77 280 126 25 15 104 60 175 100 72 40 133 77 136
83 4 5 15 7 25 3 11 -3 26 -1 34 4 8 5 11 10 6 10 -5 0 -3 6 3 14 7 8 21 12
32 9 24 -7 62 27 157 142 37 44 77 91 90 105 13 14 40 47 60 73 l37 49 100 -7
c55 -4 132 -11 170 -15 39 -5 93 -10 121 -10 27 0 54 -4 60 -10 5 -5 66 -29
134 -54 69 -24 163 -58 210 -75 47 -18 112 -41 145 -52 32 -11 71 -29 86 -40
15 -10 30 -19 34 -19 3 0 17 -12 30 -27 13 -16 27 -25 31 -21 4 5 -1 17 -11
28 -10 11 -14 20 -8 20 15 0 116 -99 138 -135 12 -20 -1 -11 -39 28 -65 64
-97 69 -38 5 58 -64 75 -78 99 -84 25 -7 49 -70 38 -103 -3 -10 -10 -74 -15
-142 -12 -172 -65 -322 -152 -432 -17 -21 -28 -40 -25 -43 5 -6 140 41 247 86
95 39 185 89 277 151 40 27 83 49 96 49 17 0 36 17 72 67 77 108 103 181 73
211 -9 9 -8 12 6 12 15 0 18 6 13 33 -4 28 -1 34 21 45 38 18 60 15 73 -10 15
-28 16 -179 2 -236 -7 -27 -7 -42 0 -42 5 0 3 -7 -4 -17 -13 -15 -12 -15 6 -6
35 19 62 56 105 143 72 149 128 309 114 331 -2 4 0 20 5 35 5 16 12 48 15 71
l6 43 -90 45 c-49 25 -90 48 -90 52 0 3 20 28 45 54 50 54 57 85 26 127 -10
15 -33 51 -50 81 l-32 54 30 31 c17 18 31 36 31 40 0 5 22 47 49 95 50 88 121
278 126 341 3 38 -9 80 -23 80 -5 0 -24 -21 -42 -47 -53 -74 -209 -230 -270
-271 -30 -20 -57 -40 -58 -44 -2 -4 -8 -5 -14 -2 -5 3 -12 -4 -15 -15 -5 -20
-6 -21 -20 -4 -13 16 -13 15 -8 -14 8 -38 -1 -43 -16 -10 -9 21 -9 20 -6 -5 3
-19 0 -28 -9 -29 -8 -1 -19 -2 -24 -3 -6 0 -14 -7 -19 -14 -8 -14 -47 -37 -90
-53 -23 -9 -23 -9 -7 13 9 13 27 44 40 69 23 43 24 47 8 62 -10 11 -12 17 -4
17 7 0 12 5 12 11 0 5 -4 7 -10 4 -18 -11 -10 11 10 30 11 10 20 22 20 28 0 5
9 22 20 37 l21 29 -23 -1 c-13 -1 -29 -6 -35 -11 -7 -5 -13 -6 -13 -2 0 5 -8
1 -17 -7 -30 -26 -60 -38 -171 -69 -134 -38 -202 -47 -202 -28 0 14 -43 39
-68 39 -12 0 -12 3 -2 15 11 13 15 13 21 3 6 -9 9 -6 9 10 0 12 -7 34 -16 47
-22 34 -13 63 46 145 28 37 50 71 50 74 0 13 -53 5 -90 -14 -42 -21 -65 -26
-55 -11 3 5 1 12 -5 16 -6 3 -13 -1 -17 -11 -5 -14 -8 -14 -24 7 -10 13 -19
29 -19 36 0 6 -4 15 -10 18 -6 4 -7 -1 -3 -12 6 -16 5 -16 -10 -4 -19 15 -24
46 -6 35 8 -4 8 0 0 15 -13 24 -23 28 -15 6 4 -8 3 -15 0 -15 -11 0 -87 162
-82 176 3 8 -1 14 -10 14 -8 0 -13 4 -10 9 3 4 -4 17 -15 27 -11 10 -17 24
-14 31 2 8 0 11 -5 8 -6 -3 -13 1 -16 9 -3 9 -13 16 -20 16 -12 0 -11 -5 2
-25 15 -23 15 -25 1 -19 -9 3 -23 25 -33 49 -9 24 -28 55 -43 69 l-26 25 -55
-41 c-83 -63 -251 -168 -269 -168 -9 0 -22 -9 -29 -20 -18 -29 -38 -25 -37 8
0 39 50 104 159 207 87 82 184 147 279 188 15 6 27 17 27 24 0 7 7 13 16 13 8
0 13 4 10 9 -3 4 6 6 19 3 28 -5 55 -38 113 -139 42 -71 119 -160 130 -148 3
3 -4 18 -17 33 -12 15 -34 46 -49 70 -15 23 -52 82 -84 130 -32 49 -51 89 -45
91 15 6 89 -79 83 -96 -3 -7 -1 -12 5 -10 6 1 23 -20 37 -47 15 -28 32 -55 37
-61 6 -6 24 -28 42 -48 48 -55 86 -71 178 -73 44 -1 86 3 93 9 9 7 11 5 5 -9
-6 -17 -5 -17 10 -5 15 12 17 11 17 -3 0 -16 -8 -17 -107 -18 -19 0 -33 -6
-33 -13 0 -9 16 -10 62 -3 82 11 130 29 124 45 -3 8 9 19 31 28 41 18 57 19
48 5 -4 -6 -10 -8 -15 -5 -4 3 -11 -2 -14 -10 -3 -8 -11 -14 -17 -13 -6 2 -14
-3 -16 -10 -6 -16 90 32 108 54 6 8 47 33 89 55 43 22 85 48 93 57 16 18 41
78 62 152 15 53 5 61 -44 36 -32 -17 -96 -21 -105 -7 -3 4 -43 11 -89 15 -115
9 -232 45 -233 71 -1 31 -15 55 -33 55 -12 0 -13 2 -3 8 9 6 0 22 -35 58 -26
27 -82 89 -123 137 -91 107 -105 115 -188 104 -34 -5 -60 -12 -58 -15 2 -4 -8
-7 -22 -7 -15 -1 -37 -4 -49 -9 -18 -5 -23 -4 -23 8 0 9 -2 16 -5 16 -3 0 -41
-36 -84 -80 -83 -85 -111 -99 -111 -52 0 21 22 48 101 127 142 140 136 134
219 201 100 80 121 94 216 143 83 43 106 49 138 36 14 -6 17 -5 14 6 -3 8 -10
13 -15 12 -5 -1 -10 4 -10 11 0 20 88 61 97 46 5 -9 9 -9 14 -1 4 6 4 11 -1
12 -4 0 3 5 16 10 30 12 50 -9 26 -27 -8 -6 -15 -17 -15 -23 0 -7 -4 -10 -8
-7 -13 8 -33 -9 -35 -31 0 -11 17 -55 40 -99 22 -43 44 -94 48 -111 3 -18 11
-33 15 -33 15 0 98 124 129 192 19 42 37 69 50 73 12 3 21 12 21 18 0 7 4 6
10 -3 7 -11 10 -11 10 -2 0 7 5 10 10 7 6 -3 10 0 10 7 0 9 3 9 10 -2 5 -8 10
-10 10 -3 0 17 28 9 45 -13 8 -10 27 -55 41 -99 23 -69 27 -99 29 -218 1 -75
4 -140 8 -143 3 -3 12 16 20 42 10 36 11 51 3 57 -8 5 -6 10 4 17 12 8 12 10
1 10 -11 0 -11 3 -1 15 9 10 9 15 1 15 -18 0 -13 26 10 46 l22 19 -6 -80 c-3
-44 -8 -89 -12 -100 -3 -11 0 -29 9 -40 l15 -20 20 20 c36 36 121 188 142 255
12 38 23 106 26 165 3 63 11 109 20 124 11 17 12 26 4 34 -6 6 -11 20 -11 31
0 16 3 17 12 8 20 -20 32 -13 13 8 -13 15 -14 20 -5 20 11 0 11 3 2 12 -9 9
-3 23 23 58 41 56 46 82 10 45 -58 -58 -36 -4 31 75 29 35 56 72 60 82 3 10 9
18 14 18 5 0 8 12 8 28 0 15 13 70 30 122 32 95 63 258 61 315 -1 17 -7 -13
-15 -65 -16 -109 -19 -120 -35 -120 -7 0 -9 8 -5 23 4 12 16 76 27 142 29 167
17 297 -29 331 -14 11 -15 16 -5 33 7 11 9 23 4 26 -13 7 -22 105 -24 260 -2
128 -2 129 -26 135 -18 4 -32 -1 -52 -21 -42 -41 -87 -73 -161 -113 -37 -20
-170 -113 -295 -207 -269 -201 -258 -193 -353 -261 -41 -30 -84 -61 -95 -71
-11 -9 -49 -36 -84 -59 -35 -24 -63 -47 -62 -51 1 -4 -11 -19 -26 -32 -22 -19
-25 -27 -14 -34 8 -5 9 -11 3 -15 -6 -3 -12 -1 -14 5 -6 18 -36 -1 -31 -20 3
-14 -13 -23 -89 -49 -80 -28 -94 -31 -104 -18 -5 8 -17 16 -24 18 -34 8 -55
41 -51 81 l3 40 -78 -7 c-44 -4 -119 -14 -169 -22 -49 -8 -112 -19 -140 -23
-27 -5 -107 -20 -176 -34 -70 -15 -157 -29 -195 -33 -38 -4 -78 -12 -89 -17
-11 -6 -28 -10 -37 -9 -21 4 -168 -137 -161 -154 2 -7 -5 -15 -17 -19 -28 -9
-52 -48 -43 -71 5 -15 4 -17 -8 -8 -34 26 -45 23 -41 -12 4 -36 -4 -42 -30
-21 -23 18 -26 39 -53 292 -13 127 -33 298 -44 380 -17 125 -28 355 -16 320 2
-5 9 -66 15 -135 12 -152 31 -282 40 -293 4 -5 6 15 5 45 -2 29 -4 152 -6 273
-1 121 -6 246 -12 277 -7 45 -6 66 6 101 15 44 15 45 -6 51 -28 7 -47 -10 -47
-42 0 -36 -11 -20 -12 17 -1 18 -6 35 -11 38 -6 4 -8 0 -5 -9z m-4262 -98 c0
-5 -4 -10 -10 -10 -5 0 -10 5 -10 10 0 6 5 10 10 10 6 0 10 -4 10 -10z m4237
-127 c-2 -16 -4 -5 -4 22 0 28 2 40 4 28 2 -13 2 -35 0 -50z m-17 -45 c0 -15
-54 -180 -92 -281 -16 -42 -44 -75 -54 -64 -4 4 0 24 8 44 39 94 58 147 58
162 0 10 4 21 9 27 5 5 19 42 31 82 15 48 26 69 31 60 5 -7 9 -21 9 -30z
m-3919 -265 c13 -16 12 -17 -3 -4 -17 13 -22 21 -14 21 2 0 10 -8 17 -17z m63
-72 c-4 -3 -9 0 -11 7 -3 6 -10 9 -15 6 -7 -4 -8 -2 -4 5 6 9 11 9 22 0 8 -6
12 -15 8 -18z m-230 -111 c-6 -5 -53 52 -54 65 0 5 13 -6 29 -25 16 -19 27
-37 25 -40z m334 5 c-3 -3 -9 2 -12 12 -6 14 -5 15 5 6 7 -7 10 -15 7 -18z
m237 7 c-3 -3 -11 0 -18 7 -9 10 -8 11 6 5 10 -3 15 -9 12 -12z m3619 -150 c3
-51 2 -76 -3 -62 -4 14 -11 68 -14 120 -4 58 -3 82 2 62 5 -18 11 -72 15 -120z
m-4246 103 c-3 -3 -9 2 -12 12 -6 14 -5 15 5 6 7 -7 10 -15 7 -18z m-25 -65
c3 -11 1 -23 -4 -26 -5 -3 -9 6 -9 20 0 31 6 34 13 6z m3981 -57 c-24 -66 -54
-115 -39 -65 11 37 54 132 60 132 3 0 -7 -30 -21 -67z m-1283 -69 c-5 -49 -15
-100 -21 -114 -10 -25 -10 -24 -6 5 2 17 7 59 11 95 8 80 14 114 21 107 3 -3
1 -45 -5 -93z m3199 35 c0 -5 -4 -7 -10 -4 -5 3 -10 1 -10 -6 0 -7 -3 -10 -6
-6 -8 7 4 27 17 27 5 0 9 -5 9 -11z m-4803 -44 c2 -18 1 -18 -4 -1 -3 13 -7
15 -13 7 -5 -9 -9 -8 -14 4 -4 12 -1 16 11 13 10 -2 19 -12 20 -23z m-91 -40
c16 -12 16 -14 3 -15 -9 0 -22 7 -29 15 -16 19 0 19 26 0z m3282 -55 l0 -25
-8 25 c-4 14 -8 36 -8 50 l0 25 8 -25 c4 -14 8 -36 8 -50z m1649 53 c-9 -9
-20 -13 -24 -9 -4 4 -1 11 7 16 25 16 35 11 17 -7z m-3737 -54 c0 -6 -4 -7
-10 -4 -5 3 -10 11 -10 16 0 6 5 7 10 4 6 -3 10 -11 10 -16z m784 -15 c3 -8 2
-12 -4 -9 -6 3 -10 10 -10 16 0 14 7 11 14 -7z m-2985 -110 c10 -36 6 -64 -10
-64 -12 0 -24 58 -20 98 2 23 20 3 30 -34z m3875 -1 c-8 -27 -19 -67 -25 -91
-10 -38 -29 -67 -29 -45 0 37 52 183 65 183 2 0 -3 -21 -11 -47z m-794 -31 c0
-40 -11 -46 -26 -16 -15 28 -11 44 12 44 9 0 14 -10 14 -28z m-1182 -30 c18
-8 46 -27 62 -42 32 -30 40 -70 15 -70 -18 0 -20 -41 -2 -59 10 -10 8 -11 -6
-5 -13 5 -20 1 -24 -14 -3 -13 -26 -31 -55 -46 -55 -27 -69 -25 -115 17 -13
11 -26 18 -29 14 -8 -8 18 -34 53 -52 27 -14 27 -15 4 -15 -31 0 -104 72 -95
94 3 9 11 13 17 9 6 -3 7 -1 3 5 -19 31 -15 139 5 127 5 -4 6 0 4 7 -8 19 73
58 105 51 14 -3 40 -12 58 -21z m3246 7 c33 -14 46 -25 42 -35 -3 -8 -2 -13 3
-9 12 7 23 -42 20 -92 -2 -21 1 -45 5 -51 11 -18 -66 -92 -95 -92 -22 1 -22 2
6 14 33 14 48 30 59 61 6 15 -1 13 -26 -11 -54 -52 -69 -56 -117 -32 -43 21
-87 71 -77 87 9 14 -4 41 -20 41 -19 0 -18 16 3 51 15 26 68 58 133 82 8 3 16
6 16 6 1 1 23 -8 48 -20z m-4784 -57 c0 -19 -3 -15 -24 28 l-17 35 21 -24 c11
-13 20 -30 20 -39z m6222 18 c-9 -16 -18 -25 -20 -20 -4 12 17 50 28 50 5 0 1
-13 -8 -30z m-2872 -20 c-6 -12 -14 -19 -17 -17 -2 3 1 15 7 27 6 12 14 19 17
17 2 -3 -1 -15 -7 -27z m1786 -13 c10 4 14 -2 14 -21 0 -29 -7 -32 -34 -11
-12 9 -16 20 -11 32 5 11 9 14 12 6 2 -7 11 -9 19 -6z m-4043 -26 c-22 -21
-30 -23 -36 -13 -14 22 -1 38 32 38 l32 0 -28 -25z m1444 7 c-3 -8 -6 -5 -6 6
-1 11 2 17 5 13 3 -3 4 -12 1 -19z m-1387 8 c0 -3 -4 -8 -10 -11 -5 -3 -10 -1
-10 4 0 6 5 11 10 11 6 0 10 -2 10 -4z m5439 -33 c-8 -10 -20 -24 -26 -31 -7
-7 -13 -18 -13 -23 0 -5 -8 -9 -17 -9 -17 1 -17 1 0 14 9 7 17 17 17 21 0 12
31 45 43 45 5 0 3 -8 -4 -17z m-4834 -23 c3 -5 1 -10 -4 -10 -6 0 -11 5 -11
10 0 6 2 10 4 10 3 0 8 -4 11 -10z m2705 0 c0 -5 -5 -10 -11 -10 -5 0 -7 5 -4
10 3 6 8 10 11 10 2 0 4 -4 4 -10z m-3530 -61 c0 -6 -4 -7 -10 -4 -5 3 -10 11
-10 16 0 6 5 7 10 4 6 -3 10 -11 10 -16z m4352 -1 c-7 -7 -12 -8 -12 -2 0 14
12 26 19 19 2 -3 -1 -11 -7 -17z m-4172 -16 c0 -15 -2 -15 -10 -2 -13 20 -13
33 0 25 6 -3 10 -14 10 -23z m3993 -2 c-3 -11 -10 -23 -16 -27 -5 -3 -8 -2 -5
3 3 5 8 17 11 27 9 24 16 22 10 -3z m-4153 -10 c0 -5 -4 -10 -10 -10 -5 0 -10
5 -10 10 0 6 5 10 10 10 6 0 10 -4 10 -10z m4320 0 c0 -5 -5 -10 -11 -10 -5 0
-7 5 -4 10 3 6 8 10 11 10 2 0 4 -4 4 -10z m-2730 -35 c0 -8 -2 -15 -4 -15 -2
0 -6 7 -10 15 -3 8 -1 15 4 15 6 0 10 -7 10 -15z m1140 6 c0 -6 -4 -12 -8 -15
-5 -3 -9 1 -9 9 0 8 4 15 9 15 4 0 8 -4 8 -9z m1570 -1 c0 -5 -5 -10 -11 -10
-5 0 -7 5 -4 10 3 6 8 10 11 10 2 0 4 -4 4 -10z m-1837 -72 c6 -22 5 -22 -8
-4 -17 22 -20 40 -6 32 5 -3 11 -16 14 -28z m-3233 -4 l25 -15 -25 7 c-14 3
-29 10 -34 15 -16 14 6 10 34 -7z m1816 -9 c12 -9 14 -14 6 -15 -7 0 -20 7
-28 15 -20 19 -4 20 22 0z m-76 -45 c0 -5 -4 -10 -10 -10 -5 0 -10 5 -10 10 0
6 5 10 10 10 6 0 10 -4 10 -10z m44 -66 c5 -14 4 -15 -9 -4 -17 14 -19 20 -6
20 5 0 12 -7 15 -16z m2296 12 c0 -2 -7 -9 -15 -16 -13 -11 -14 -10 -9 4 5 14
24 23 24 12z m-4189 -39 c-8 -8 -11 -7 -11 4 0 20 13 34 18 19 3 -7 -1 -17 -7
-23z m5993 -26 c-10 -2 -22 -8 -26 -15 -6 -8 -8 -7 -8 2 0 7 -4 10 -10 7 -5
-3 -10 0 -10 9 0 20 20 25 49 12 22 -10 23 -11 5 -15z m-5957 -3 c-3 -8 -6 -5
-6 6 -1 11 2 17 5 13 3 -3 4 -12 1 -19z m-76 -45 c-24 -45 -27 -37 -6 14 8 20
18 34 21 30 3 -3 -4 -22 -15 -44z m6144 16 c9 -17 15 -33 13 -35 -3 -2 -12 12
-21 31 -21 43 -13 47 8 4z m-655 -33 c0 -3 -27 -21 -60 -41 -114 -69 -256
-188 -396 -332 -101 -104 -143 -141 -147 -130 -6 15 21 47 40 47 6 0 13 7 17
15 3 8 12 15 21 15 8 0 15 9 15 20 0 11 16 30 37 45 21 14 35 25 31 25 -14 0
79 94 147 150 73 59 155 115 240 161 55 31 55 31 55 25z m240 -47 c0 -6 -4 -7
-10 -4 -5 3 -10 11 -10 16 0 6 5 7 10 4 6 -3 10 -11 10 -16z m102 -151 c-7 -7
-12 -8 -12 -2 0 14 12 26 19 19 2 -3 -1 -11 -7 -17z m-3272 -18 c23 -32 13
-42 -12 -12 -23 26 -30 42 -19 42 5 0 19 -13 31 -30z m1040 0 c-12 -16 -26
-30 -33 -30 -6 0 2 14 18 30 16 17 30 30 33 30 2 0 -6 -13 -18 -30z m-935
-110 c3 -5 -1 -10 -9 -10 -9 0 -16 5 -16 10 0 6 4 10 9 10 6 0 13 -4 16 -10z
m840 0 c-3 -5 -11 -10 -16 -10 -6 0 -7 5 -4 10 3 6 11 10 16 10 6 0 7 -4 4
-10z m-2324 -57 c13 -16 12 -17 -3 -4 -10 7 -18 15 -18 17 0 8 8 3 21 -13z
m123 9 c2 -4 1 -14 -3 -21 -6 -9 -10 -7 -14 8 -5 20 7 29 17 13z m1421 -22
c23 -26 8 -26 -25 0 -18 14 -21 20 -9 20 9 0 24 -9 34 -20z m715 0 c-33 -26
-48 -26 -25 0 10 11 25 20 34 20 12 0 9 -6 -9 -20z m-3550 -33 c0 -6 -9 -2
-20 8 -11 10 -20 23 -20 28 0 6 9 2 20 -8 11 -10 20 -23 20 -28z m6410 40 c0
-2 -12 -14 -27 -28 l-26 -24 19 27 c16 23 34 36 34 25z m-990 -17 c0 -5 -9
-14 -20 -20 -22 -12 -27 -1 -8 18 14 14 28 16 28 2z m-3954 -92 c19 -38 33
-75 31 -81 -2 -7 -18 16 -36 51 -17 34 -35 61 -40 58 -4 -3 -8 8 -8 24 0 41
12 29 53 -52z m1496 7 c9 -16 6 -16 -17 5 -15 14 -32 34 -37 45 -9 16 -6 16
17 -5 15 -14 32 -34 37 -45z m463 17 l-38 -37 33 43 c18 24 35 40 38 37 3 -3
-11 -22 -33 -43z m-2310 28 c3 -6 -1 -7 -9 -4 -18 7 -21 14 -7 14 6 0 13 -4
16 -10z m3790 -70 c-40 -80 -59 -90 -25 -13 25 58 50 97 56 90 3 -3 -11 -37
-31 -77z m410 70 c-3 -5 -11 -10 -16 -10 -6 0 -7 5 -4 10 3 6 11 10 16 10 6 0
7 -4 4 -10z m-4040 -88 c-3 -3 -11 0 -18 7 -9 10 -8 11 6 5 10 -3 15 -9 12
-12z m100 -52 c8 -13 -5 -13 -25 0 -13 8 -13 10 2 10 9 0 20 -4 23 -10z m-194
-364 c131 -17 169 -25 169 -36 0 -8 -44 -5 -100 6 -14 3 -65 8 -115 11 -96 5
-101 6 -90 22 8 14 -2 14 136 -3z m-241 -41 c-13 -14 -20 -25 -15 -25 14 0
-13 -24 -30 -26 -8 -1 -15 -1 -15 0 0 8 66 75 74 75 5 1 -1 -10 -14 -24z
m3739 -57 c-27 -68 -29 -72 -42 -59 -8 8 -8 14 1 23 7 7 12 20 12 31 0 27 18
57 35 57 12 0 11 -9 -6 -52z m-4357 -38 c18 -11 29 -20 23 -20 -5 0 -23 9 -40
20 -39 26 -25 26 17 0z m1406 -9 c3 -8 -1 -12 -9 -9 -7 2 -15 10 -17 17 -3 8
1 12 9 9 7 -2 15 -10 17 -17z m-121 -64 c15 5 25 -11 17 -30 -5 -13 -11 -11
-35 10 -16 15 -29 31 -29 36 0 6 8 3 18 -5 9 -9 22 -13 29 -11z m3203 18 c0
-9 -40 -45 -50 -45 -5 0 -10 -6 -11 -12 0 -7 -4 -4 -8 7 -8 19 5 39 20 29 4
-2 12 3 19 11 12 14 30 20 30 10z m360 -18 c0 -5 -9 -5 -20 -2 -11 4 -20 2
-20 -4 0 -6 -5 -11 -11 -11 -8 0 -8 4 0 14 13 16 51 18 51 3z m-3476 -64 c4
-9 1 -20 -5 -24 -13 -8 -51 20 -43 33 9 14 42 9 48 -9z m3020 9 c8 -14 -30
-41 -45 -32 -10 7 -10 11 0 24 14 17 37 21 45 8z m570 -88 c5 -14 4 -15 -9 -4
-17 14 -19 20 -6 20 5 0 12 -7 15 -16z m102 -151 c81 -151 83 -156 54 -151
-17 2 -36 28 -75 101 -30 53 -51 97 -48 97 4 0 -1 8 -9 18 -30 35 -29 57 3 61
3 1 37 -56 75 -126z m-3680 42 c-11 -8 -22 -12 -25 -9 -6 6 19 24 34 24 6 -1
1 -7 -9 -15z m3782 -180 c-3 -3 -9 2 -12 12 -6 14 -5 15 5 6 7 -7 10 -15 7
-18z m-4098 -25 c0 -5 -5 -10 -11 -10 -5 0 -7 5 -4 10 3 6 8 10 11 10 2 0 4
-4 4 -10z m3595 0 c3 -5 1 -10 -4 -10 -6 0 -11 5 -11 10 0 6 2 10 4 10 3 0 8
-4 11 -10z m-3060 -99 c-3 -6 -11 -8 -17 -5 -6 4 -5 9 3 15 16 10 23 4 14 -10z
m515 -2 c0 -5 -4 -9 -10 -9 -5 0 -10 7 -10 16 0 8 5 12 10 9 6 -3 10 -10 10
-16z m1504 6 c-4 -8 -11 -15 -16 -15 -6 0 -5 6 2 15 7 8 14 15 16 15 2 0 1 -7
-2 -15z m516 -5 c0 -5 -4 -10 -9 -10 -6 0 -13 5 -16 10 -3 6 1 10 9 10 9 0 16
-4 16 -10z m-2516 -54 c-6 -16 -24 -23 -24 -8 0 10 22 33 27 28 2 -2 1 -11 -3
-20z m2496 -7 c0 -6 -4 -7 -10 -4 -5 3 -10 11 -10 16 0 6 5 7 10 4 6 -3 10
-11 10 -16z m-3030 -44 c0 -2 -32 -30 -71 -62 -40 -32 -85 -68 -100 -81 -29
-23 -69 -23 -69 0 0 7 5 6 14 -1 12 -10 33 3 113 68 89 74 113 89 113 76z
m3633 -59 c45 -35 91 -74 102 -87 l20 -23 -26 19 c-79 59 -189 147 -189 150 0
12 16 1 93 -59z m-4719 -6 l6 -35 -15 30 c-16 34 -20 64 -6 50 5 -6 12 -26 15
-45z m386 0 c-6 -11 -12 -20 -14 -20 -2 0 -2 9 1 20 3 11 9 20 15 20 5 0 4 -9
-2 -20z m35 -20 c3 -5 -3 -10 -15 -10 -12 0 -18 5 -15 10 3 6 10 10 15 10 5 0
12 -4 15 -10z m5259 -91 c-36 -53 -65 -67 -38 -18 19 33 56 71 63 64 2 -2 -10
-23 -25 -46z m-5579 -19 c12 -19 -12 -10 -31 11 -19 22 -19 22 3 10 12 -6 25
-16 28 -21z m-235 1 c0 -6 -4 -13 -10 -16 -5 -3 -10 1 -10 9 0 9 5 16 10 16 6
0 10 -4 10 -9z m6000 -6 c0 -8 -2 -15 -4 -15 -2 0 -6 7 -10 15 -3 8 -1 15 4
15 6 0 10 -7 10 -15z m-5980 -40 c-7 -9 -15 -13 -17 -11 -6 6 20 36 26 30 2
-2 -2 -10 -9 -19z m-50 0 c-7 -8 -17 -15 -22 -15 -6 0 -5 7 2 15 7 8 17 15 22
15 6 0 5 -7 -2 -15z m6066 -12 c-7 -7 -26 7 -26 19 0 6 6 6 15 -2 9 -7 13 -15
11 -17z m-277 0 c-30 -39 -59 -46 -32 -8 10 13 24 25 32 25 11 0 11 -3 0 -17z
m-5659 -63 c0 -4 -7 -10 -15 -14 -8 -3 -15 -4 -15 -2 0 3 -3 11 -6 19 -4 12 0
14 15 10 12 -3 21 -9 21 -13z m5814 -4 c-3 -8 -12 -12 -20 -9 -21 8 -17 23 6
23 13 0 18 -5 14 -14z m-5758 -41 c-11 -8 -22 -12 -25 -9 -6 6 19 24 34 24 6
-1 1 -7 -9 -15z m5694 -1 c0 -2 -7 -4 -15 -4 -8 0 -15 4 -15 10 0 5 7 7 15 4
8 -4 15 -8 15 -10z m-5690 -56 c0 -18 -2 -20 -9 -8 -6 8 -7 18 -5 22 9 14 14
9 14 -14z m5674 -3 c-4 -8 -8 -15 -10 -15 -2 0 -4 7 -4 15 0 8 4 15 10 15 5 0
7 -7 4 -15z m-4059 -45 c13 -6 -14 -8 -75 -8 -79 1 -86 2 -45 8 71 10 97 10
120 0z m2473 -35 c64 -10 44 -17 -27 -9 -33 3 -58 11 -55 16 3 5 13 7 22 4 10
-2 36 -8 60 -11z m-4288 -90 c-7 -8 -17 -12 -23 -8 -6 4 -3 11 8 19 23 17 32
10 15 -11z m6090 0 c0 -15 -21 -12 -30 5 -11 20 -10 21 9 10 12 -6 21 -13 21
-15z m-4895 -35 c-3 -5 -27 -16 -53 -24 -26 -8 -68 -23 -94 -35 -27 -11 -48
-16 -48 -12 0 10 120 58 198 80 2 1 0 -3 -3 -9z m3787 -31 c43 -18 76 -34 74
-37 -5 -4 -82 23 -151 54 -62 27 1 13 77 -17z m-4052 -43 c0 -3 -4 -8 -10 -11
-5 -3 -10 -1 -10 4 0 6 5 11 10 11 6 0 10 -2 10 -4z m-490 -91 c0 -19 -4 -35
-10 -35 -11 0 -13 30 -4 54 10 25 14 19 14 -19z m5200 -6 c0 -18 -4 -28 -10
-24 -5 3 -10 20 -10 36 0 18 4 28 10 24 6 -3 10 -20 10 -36z m-1855 -119 c3
-5 1 -10 -4 -10 -6 0 -11 5 -11 10 0 6 2 10 4 10 3 0 8 -4 11 -10z m-3335
-101 c0 -11 -4 -17 -10 -14 -5 3 -10 13 -10 21 0 8 5 14 10 14 6 0 10 -9 10
-21z m5176 -5 c-4 -9 -9 -15 -11 -12 -3 3 -3 13 1 22 4 9 9 15 11 12 3 -3 3
-13 -1 -22z m-5686 -44 c0 -5 -5 -10 -11 -10 -5 0 -7 5 -4 10 3 6 8 10 11 10
2 0 4 -4 4 -10z m260 -39 c0 -21 -16 -2 -24 29 -7 24 -6 24 8 6 9 -11 16 -27
16 -35z m5680 14 c-6 -15 -13 -26 -16 -23 -2 3 0 18 6 33 6 15 13 26 16 23 2
-3 0 -18 -6 -33z m-5106 -581 c9 -3 14 -10 11 -15 -7 -10 -35 0 -35 12 0 11 3
11 24 3z"/>
<path d="M2590 5770 c0 -5 9 -10 21 -10 11 0 17 5 14 10 -3 6 -13 10 -21 10
-8 0 -14 -4 -14 -10z"/>
<path d="M5603 5773 c-21 -8 -15 -22 7 -16 11 3 20 9 20 14 0 10 -8 10 -27 2z"/>
<path d="M7656 7051 c-4 -5 -2 -12 3 -15 5 -4 12 -2 15 3 4 5 2 12 -3 15 -5 4
-12 2 -15 -3z"/>
<path d="M550 7039 c0 -5 5 -7 10 -4 6 3 10 8 10 11 0 2 -4 4 -10 4 -5 0 -10
-5 -10 -11z"/>
<path d="M7700 6820 c0 -89 4 -130 11 -130 6 0 9 8 7 18 -3 10 1 27 8 37 16
21 19 75 5 75 -5 0 -7 -9 -4 -19 3 -11 0 -28 -5 -38 -9 -14 -11 -10 -10 25 0
29 5 42 14 42 10 0 14 13 13 43 -1 36 -2 38 -9 17 -7 -21 -8 -19 -9 18 -1 23
-5 42 -11 42 -6 0 -10 -50 -10 -130z"/>
<path d="M505 6893 c3 -27 2 -42 -1 -35 -11 24 -19 11 -19 -33 0 -51 14 -62
17 -12 1 17 5 -6 8 -53 6 -81 6 -80 8 48 1 78 -2 132 -7 132 -6 0 -8 -21 -6
-47z"/>
<path d="M3202 6920 c0 -14 2 -19 5 -12 2 6 2 18 0 25 -3 6 -5 1 -5 -13z"/>
<path d="M480 6895 c0 -8 4 -15 10 -15 5 0 7 7 4 15 -4 8 -8 15 -10 15 -2 0
-4 -7 -4 -15z"/>
<path d="M3221 6774 c0 -11 3 -14 6 -6 3 7 2 16 -1 19 -3 4 -6 -2 -5 -13z"/>
<path d="M486 6755 c4 -8 8 -15 10 -15 2 0 4 7 4 15 0 8 -4 15 -10 15 -5 0 -7
-7 -4 -15z"/>
<path d="M7720 6626 c0 -2 8 -10 18 -17 15 -13 16 -12 3 4 -13 16 -21 21 -21
13z"/>
<path d="M6088 6303 c6 -2 18 -2 25 0 6 3 1 5 -13 5 -14 0 -19 -2 -12 -5z"/>
<path d="M472 6255 c0 -16 2 -22 5 -12 2 9 2 23 0 30 -3 6 -5 -1 -5 -18z"/>
<path d="M6085 6233 c-91 -7 -313 -45 -465 -79 -36 -8 -87 -17 -114 -20 -27
-3 -61 -12 -75 -20 -25 -14 -25 -15 21 -10 25 3 64 9 85 15 93 25 436 87 533
97 39 3 70 11 70 15 0 5 -3 8 -7 7 -5 -1 -26 -3 -48 -5z"/>
<path d="M6155 6230 c-3 -5 -1 -10 4 -10 6 0 11 5 11 10 0 6 -2 10 -4 10 -3 0
-8 -4 -11 -10z"/>
<path d="M486 6150 c4 -72 23 -154 55 -243 31 -83 35 -63 6 25 -23 68 -51 184
-60 253 -3 17 -3 1 -1 -35z"/>
<path d="M4991 5844 c0 -11 3 -14 6 -6 3 7 2 16 -1 19 -3 4 -6 -2 -5 -13z"/>
<path d="M586 5805 c4 -8 10 -15 15 -15 4 0 6 7 3 15 -4 8 -10 15 -15 15 -4 0
-6 -7 -3 -15z"/>
<path d="M3916 5715 c25 -19 40 -19 20 0 -8 8 -20 15 -27 15 -7 0 -4 -6 7 -15z"/>
<path d="M3940 5680 c0 -5 5 -10 10 -10 6 0 10 5 10 10 0 6 -4 10 -10 10 -5 0
-10 -4 -10 -10z"/>
<path d="M4006 5645 c4 -8 11 -15 16 -15 6 0 5 6 -2 15 -7 8 -14 15 -16 15 -2
0 -1 -7 2 -15z"/>
<path d="M3750 5349 c0 -5 5 -7 10 -4 6 3 10 8 10 11 0 2 -4 4 -10 4 -5 0 -10
-5 -10 -11z"/>
<path d="M6688 5253 c6 -2 18 -2 25 0 6 3 1 5 -13 5 -14 0 -19 -2 -12 -5z"/>
<path d="M6573 5240 c-13 -5 -23 -11 -23 -13 0 -6 80 9 87 17 9 9 -39 6 -64
-4z"/>
<path d="M1190 5140 c0 -8 5 -22 10 -30 9 -13 10 -13 10 0 0 8 -5 22 -10 30
-9 13 -10 13 -10 0z"/>
<path d="M1503 4888 c-24 -32 -24 -41 0 -19 15 14 27 26 27 28 0 8 -19 2 -27
-9z"/>
<path d="M6710 4875 c13 -14 28 -25 33 -25 6 0 0 11 -13 25 -13 14 -28 25 -33
25 -6 0 0 -11 13 -25z"/>
<path d="M1431 4803 c-36 -43 -33 -59 3 -20 14 15 22 27 19 27 -4 0 2 7 13 15
10 8 14 15 7 15 -6 0 -25 -17 -42 -37z"/>
<path d="M6751 4823 c36 -44 60 -66 66 -59 7 7 -56 76 -70 76 -5 0 -3 -8 4
-17z"/>
<path d="M950 4530 c8 -5 20 -10 25 -10 6 0 3 5 -5 10 -8 5 -19 10 -25 10 -5
0 -3 -5 5 -10z"/>
<path d="M836 4487 c3 -10 9 -15 12 -12 3 3 0 11 -7 18 -10 9 -11 8 -5 -6z"/>
<path d="M890 4396 c0 -12 60 -86 71 -86 5 0 0 10 -10 23 -11 12 -29 33 -40
47 -11 14 -20 21 -21 16z"/>
<path d="M7010 4175 c-39 -28 -34 -33 10 -10 17 9 30 20 30 25 0 13 1 13 -40
-15z"/>
<path d="M2091 4142 c-33 -40 -42 -65 -13 -40 9 9 31 24 49 35 29 18 30 20 13
30 -15 10 -23 6 -49 -25z"/>
<path d="M6470 4105 c0 -6 57 -35 70 -35 5 0 10 5 10 11 0 6 -6 9 -14 6 -8 -3
-16 -2 -18 4 -3 9 -48 22 -48 14z"/>
<path d="M2010 4069 c0 -5 5 -7 10 -4 6 3 10 8 10 11 0 2 -4 4 -10 4 -5 0 -10
-5 -10 -11z"/>
<path d="M6565 4071 c-3 -6 3 -9 14 -8 11 0 17 5 15 9 -7 11 -22 10 -29 -1z"/>
<path d="M6309 3923 c4 -10 14 -33 22 -50 7 -18 17 -33 21 -33 5 0 -3 23 -17
50 -14 28 -27 50 -30 50 -2 0 -1 -8 4 -17z"/>
<path d="M1845 3809 c-4 -6 -5 -12 -2 -15 2 -3 7 2 10 11 7 17 1 20 -8 4z"/>
<path d="M1756 3711 c-4 -7 -5 -15 -2 -18 9 -9 19 4 14 18 -4 11 -6 11 -12 0z"/>
<path d="M7030 3550 c-8 -5 -10 -10 -5 -10 6 0 17 5 25 10 8 5 11 10 5 10 -5
0 -17 -5 -25 -10z"/>
<path d="M6915 3504 c-44 -20 -109 -44 -145 -54 -36 -10 -56 -19 -44 -19 29
-1 130 33 216 73 96 45 76 45 -27 0z"/>
<path d="M6665 3425 c-5 -2 -22 -6 -37 -9 -16 -4 -28 -11 -28 -17 0 -11 23 -6
75 16 26 12 18 19 -10 10z"/>
<path d="M6990 3290 c-14 -11 -20 -20 -14 -20 6 0 19 9 29 20 23 25 17 25 -15
0z"/>
<path d="M2671 2816 c-15 -8 -19 -15 -11 -18 7 -2 -21 -17 -61 -32 -196 -76
-298 -135 -316 -184 l-11 -32 60 0 c53 0 59 -2 48 -15 -11 -14 -9 -16 21 -15
19 1 52 -1 74 -5 28 -5 36 -4 26 3 -16 11 145 4 166 -7 6 -3 32 -35 58 -69 25
-35 49 -62 52 -59 3 3 -4 18 -14 34 -28 40 -35 53 -29 53 12 0 56 -81 50 -91
-3 -6 3 -20 13 -32 45 -51 66 -88 54 -100 -6 -6 -11 -21 -11 -34 0 -32 -53
-128 -116 -211 -30 -40 -54 -77 -54 -84 0 -7 -9 -24 -20 -38 -11 -14 -20 -32
-20 -41 0 -9 -7 -22 -15 -29 -56 -46 62 -12 125 37 8 6 32 14 52 17 35 5 264
112 293 136 10 9 22 4 52 -22 21 -19 57 -49 81 -67 l43 -34 -7 -54 c-5 -46 -4
-56 12 -68 11 -7 16 -17 11 -21 -4 -4 -7 -2 -7 4 0 7 -5 12 -11 12 -8 0 -10
-12 -6 -34 4 -22 1 -39 -7 -45 -15 -13 -16 -118 -2 -140 6 -10 6 -16 -2 -19
-9 -3 -9 -9 -2 -23 8 -14 7 -19 -3 -19 -16 0 -19 -30 -4 -48 8 -10 7 -16 -2
-21 -14 -9 -26 -141 -12 -141 36 0 63 27 119 118 72 116 208 302 222 302 6 0
10 -5 10 -11 0 -5 5 -7 11 -4 5 4 18 -1 27 -12 9 -10 28 -19 42 -21 14 -1 26
-7 28 -12 2 -5 10 -6 18 -3 8 3 14 1 14 -4 0 -5 8 -9 18 -10 24 -1 143 -33
165 -45 14 -7 17 -16 13 -36 -5 -21 -4 -24 5 -12 9 13 10 12 7 -5 -3 -11 1
-33 8 -50 7 -16 13 -23 14 -15 0 13 1 13 10 0 13 -20 13 -33 0 -25 -6 3 -7 -1
-4 -10 4 -9 9 -13 12 -10 7 7 32 -52 32 -76 0 -11 5 -19 10 -19 6 0 8 -11 4
-27 -5 -19 -2 -30 10 -38 9 -7 16 -17 15 -21 -4 -22 2 -33 14 -28 33 12 45
-45 22 -98 -5 -13 -3 -18 9 -18 9 0 16 5 16 10 0 6 5 10 11 10 5 0 7 -4 4 -10
-3 -5 0 -7 8 -4 8 3 24 40 36 82 13 42 32 109 43 147 27 96 68 219 77 234 9
13 166 52 176 43 3 -3 5 0 5 7 0 7 7 11 15 8 8 -4 17 -2 20 4 4 5 11 7 16 4 5
-4 9 -1 9 5 0 7 7 10 15 6 8 -3 15 -1 15 5 0 6 7 9 15 5 8 -3 15 -1 15 5 0 6
7 9 15 5 8 -3 15 -1 15 5 0 6 7 9 15 5 8 -3 15 -2 15 3 0 23 35 2 65 -38 18
-26 43 -55 54 -65 12 -11 19 -26 17 -35 -3 -10 10 -28 32 -46 20 -16 33 -24
28 -17 -11 19 9 14 27 -6 22 -24 22 -38 0 -21 -10 8 14 -17 52 -55 39 -39 69
-74 67 -79 -1 -5 2 -6 7 -2 11 6 34 -29 24 -38 -4 -5 38 -27 51 -27 11 0 -9
184 -30 270 -14 58 -30 128 -36 155 -5 28 -16 71 -24 97 -15 51 -18 106 -6
124 4 6 42 41 86 76 l79 65 106 -54 c58 -29 131 -61 161 -70 30 -8 83 -31 118
-49 73 -39 87 -42 72 -15 -8 15 -6 20 7 23 13 2 12 8 -11 34 -14 18 -26 37
-26 44 0 7 -25 46 -56 87 -59 78 -114 180 -114 211 0 10 -5 23 -11 29 -8 8 2
29 41 80 29 37 71 93 94 124 41 56 41 56 111 66 39 6 104 9 145 9 82 -2 99 2
79 15 -10 6 -4 9 17 9 17 0 47 7 67 15 28 11 34 19 30 35 -3 11 -9 18 -13 15
-15 -9 -201 65 -257 103 -62 42 -166 77 -264 88 -51 6 -58 4 -68 -15 -6 -11
-26 -28 -43 -37 -36 -19 -39 -21 -93 -89 -22 -28 -78 -93 -125 -145 -47 -52
-101 -112 -120 -133 -45 -50 -179 -155 -261 -205 -35 -22 -102 -54 -149 -73
-47 -18 -91 -39 -99 -47 -26 -25 -389 7 -606 55 -38 8 -99 21 -135 28 -36 7
-83 18 -105 23 -22 6 -52 13 -67 16 -16 4 -35 20 -47 40 -12 18 -95 100 -186
182 -238 214 -296 263 -330 278 -16 7 -36 25 -44 39 -8 15 -19 27 -24 27 -6 0
-2 -9 8 -20 10 -11 14 -20 8 -20 -13 0 -43 33 -43 48 0 7 -4 12 -10 12 -5 0
-10 6 -10 14 0 17 -37 27 -68 19 -16 -4 -22 -1 -22 11 0 20 -73 22 -109 2z
m-41 -236 c0 -5 -2 -10 -4 -10 -3 0 -8 5 -11 10 -3 6 -1 10 4 10 6 0 11 -4 11
-10z m3000 -10 c-32 -10 -83 -12 -77 -2 3 4 27 8 54 9 37 1 42 0 23 -7z m177
-26 c-3 -3 -12 -4 -19 -1 -8 3 -5 6 6 6 11 1 17 -2 13 -5z m-343 -119 c-9 -14
-18 -25 -21 -25 -5 0 5 18 20 38 17 22 18 13 1 -13z m-2524 -310 c-7 -8 -17
-15 -23 -15 -5 0 -2 9 8 20 21 23 35 19 15 -5z m2355 5 c10 -11 13 -20 7 -20
-6 0 -16 9 -22 20 -6 11 -9 20 -7 20 2 0 12 -9 22 -20z m-2221 -85 c-3 -8 -21
-19 -40 -25 -19 -6 -34 -15 -34 -19 0 -4 -6 -8 -12 -8 -7 0 -22 -4 -33 -8 -36
-14 -10 4 56 39 35 19 65 35 66 35 1 1 0 -6 -3 -14z m2134 -20 c73 -38 83 -47
42 -40 -39 8 -100 42 -100 56 0 13 6 12 58 -16z m-1637 -45 c5 0 9 -4 9 -10 0
-16 -26 -12 -41 7 -12 15 -12 16 4 10 10 -4 23 -7 28 -7z m-734 -47 c-9 -9
-20 -13 -24 -9 -4 4 -1 11 7 16 25 16 35 11 17 -7z m2553 6 c0 -5 5 -7 10 -4
6 3 10 1 10 -4 0 -17 -27 -13 -34 4 -3 8 -1 15 4 15 6 0 10 -5 10 -11z m-2590
-16 c-1 -10 -101 -55 -108 -49 -4 5 87 55 101 56 4 0 7 -3 7 -7z m2678 -17
c27 -14 55 -32 62 -41 13 -16 12 -16 -23 -1 -20 8 -37 13 -37 10 0 -3 -7 2
-16 10 -8 9 -22 16 -30 16 -8 0 -14 7 -14 15 0 20 2 19 58 -9z m-2128 -243
c-11 -17 -11 -17 -6 0 3 10 6 24 7 30 0 9 2 9 5 0 3 -7 0 -20 -6 -30z m1530
-8 c0 -5 -5 -3 -10 5 -5 8 -10 20 -10 25 0 6 5 3 10 -5 5 -8 10 -19 10 -25z
m-90 -98 c0 -6 -9 0 -20 13 -11 13 -20 25 -20 28 0 3 9 -3 20 -13 11 -10 20
-23 20 -28z m-772 -48 c-3 -20 -5 -19 -9 9 -3 20 -2 29 4 23 5 -5 7 -19 5 -32z
m-667 -26 c-30 -57 -61 -100 -61 -85 0 16 71 134 77 128 3 -2 -5 -21 -16 -43z
m1449 12 c13 -14 21 -25 18 -25 -2 0 -15 11 -28 25 -13 14 -21 25 -18 25 2 0
15 -11 28 -25z m-715 -123 c-3 -3 -11 0 -18 7 -9 10 -8 11 6 5 10 -3 15 -9 12
-12z"/>
<path d="M5190 2006 c0 -2 7 -7 16 -10 8 -3 12 -2 9 4 -6 10 -25 14 -25 6z"/>
<path d="M5500 2815 c53 -17 79 -20 64 -5 -5 5 -32 12 -59 15 l-50 5 45 -15z"/>
<path d="M710 2614 c0 -10 5 -26 10 -34 8 -11 9 -7 4 15 -8 37 -14 45 -14 19z"/>
<path d="M7502 2600 c0 -19 2 -27 5 -17 2 9 2 25 0 35 -3 9 -5 1 -5 -18z"/>
<path d="M2538 2503 c7 -3 16 -2 19 1 4 3 -2 6 -13 5 -11 0 -14 -3 -6 -6z"/>
<path d="M7481 2498 c0 -9 -4 -25 -7 -35 -5 -14 -4 -15 5 -7 7 7 11 22 8 35
-2 13 -5 16 -6 7z"/>
<path d="M5568 2493 c7 -3 16 -2 19 1 4 3 -2 6 -13 5 -11 0 -14 -3 -6 -6z"/>
<path d="M3320 2430 c48 -42 67 -49 67 -25 0 9 -6 14 -13 11 -7 -3 -29 8 -50
25 -54 42 -57 35 -4 -11z"/>
<path d="M4808 2463 c6 -2 18 -2 25 0 6 3 1 5 -13 5 -14 0 -19 -2 -12 -5z"/>
<path d="M7432 2352 c-41 -108 -49 -138 -23 -89 22 42 65 166 60 172 -2 2 -19
-36 -37 -83z"/>
<path d="M4756 2403 c-3 -3 -1 -14 4 -24 7 -12 6 -20 -2 -25 -6 -4 -8 -3 -5 3
4 6 -4 13 -17 15 -17 3 -23 1 -19 -8 3 -8 -15 -23 -46 -39 -52 -26 -68 -42
-30 -30 15 5 19 4 15 -4 -4 -6 -5 -11 -1 -11 11 0 103 49 116 62 8 7 25 18 39
25 24 10 24 11 5 18 -11 3 -27 10 -36 15 -9 5 -19 6 -23 3z"/>
<path d="M3785 2320 c-3 -5 -4 -10 -1 -10 2 0 12 -3 20 -6 12 -5 15 -2 10 10
-7 18 -20 21 -29 6z"/>
<path d="M3955 2260 c11 -5 29 -9 40 -9 17 -1 17 1 5 9 -8 5 -26 9 -40 9 -23
0 -23 -1 -5 -9z"/>
<path d="M4030 2240 c0 -5 -7 -10 -15 -10 -8 0 -15 -4 -15 -10 0 -5 15 -10 33
-10 24 0 28 3 17 10 -13 9 -13 11 0 20 13 8 12 10 -2 10 -10 0 -18 -4 -18 -10z"/>
<path d="M1093 2034 c-3 -8 -1 -25 5 -37 8 -19 10 -17 9 16 -1 40 -4 46 -14
21z"/>
<path d="M7113 2020 c0 -16 4 -27 9 -24 4 3 8 14 8 24 0 10 -4 21 -8 24 -5 3
-9 -8 -9 -24z"/>
<path d="M1061 1984 c0 -11 3 -14 6 -6 3 7 2 16 -1 19 -3 4 -6 -2 -5 -13z"/>
<path d="M6361 1913 c-23 -38 -49 -79 -57 -93 -11 -16 -6 -13 14 9 28 31 99
151 89 151 -3 0 -23 -30 -46 -67z"/>
<path d="M1954 1939 c-3 -6 -1 -16 5 -22 8 -8 11 -5 11 11 0 24 -5 28 -16 11z"/>
<path d="M6250 1930 c0 -19 3 -21 12 -12 9 9 9 15 0 24 -9 9 -12 7 -12 -12z"/>
</g>
</svg>
